<?xml version="1.0" encoding="iso-8859-1"?>
<!-- Generator: Adobe Illustrator 19.0.0, SVG Export Plug-In . SVG Version: 6.00 Build 0)  -->
<svg version="1.1" id="Layer_1" xmlns="http://www.w3.org/2000/svg" xmlns:xlink="http://www.w3.org/1999/xlink" x="0px" y="0px"
	 viewBox="0 0 512 512" style="enable-background:new 0 0 512 512;" xml:space="preserve">
<g transform="translate(1 1)">
	<g>
		<g>
			<path style="fill: #FFFFFF;" d="M508.12,155.16L354.52,1.56c-3.413-3.413-8.533-3.413-11.947,0L236.76,103.96c-11.947,11.947-17.92,26.453-17.92,42.667
				c0,16.213,6.827,31.573,17.92,42.667l23.467,23.467l-84.039,84.039c-9.489-9.362-25.059-9.074-35.001,0.867L14.04,423.107
				c-19.627,20.48-19.627,52.907,0,72.533C23.427,505.88,37.08,511,49.88,511s26.453-5.12,35.84-15.36l10.654-10.582
				c1.092-0.643,1.984-1.529,2.634-2.616l27.512-27.328c1.243-0.777,2.329-1.857,3.117-3.096l83.231-82.672
				c10.24-9.387,10.24-25.6,0-35.84l-0.053-0.053l83.31-84.797l25.117,25.117c11.093,11.093,26.453,17.067,41.813,17.067
				s30.72-5.973,42.667-17.92l102.4-105.813C511.533,163.693,511.533,158.573,508.12,155.16z M200.92,357.4l-40.107,40.107V357.4
				c0-5.12-3.413-8.533-8.533-8.533c-5.12,0-8.533,3.413-8.533,8.533v57.173l-12.8,12.8v-40.107c0-5.12-3.413-8.533-8.533-8.533
				s-8.533,3.413-8.533,8.533v57.173l-13.653,13.653v-40.96c0-5.12-3.413-8.533-8.533-8.533c-5.12,0-8.533,3.413-8.533,8.533v58.027
				l-8.533,8.533c-13.653,12.8-35.84,12.8-48.64,0c-13.653-12.8-13.653-34.987,0-47.787l127.147-126.293
				c3.413-3.413,8.533-3.413,11.947,0l5.12,5.12l24.747,24.747c0,0,0.001,0.001,0.001,0.001l5.972,5.972
				C204.333,348.867,204.333,353.987,200.92,357.4z M200.92,320.707l-11.947-11.947l83.627-83.627l11.947,11.947L200.92,320.707z
				 M393.773,260.12c-17.067,16.213-44.373,16.213-60.587,0l-84.48-84.48c-8.533-7.68-12.8-18.773-12.8-29.867
				c0-11.093,5.12-22.187,12.8-29.867l99.84-96.427L490.2,161.133L393.773,260.12z"/>
			<path style="fill: #FFFFFF;" d="M302.467,207.213c1.707,1.707,3.413,2.56,5.973,2.56s4.267-0.853,5.973-2.56l97.28-97.28
				c3.413-3.413,3.413-8.533,0-11.947s-8.533-3.413-11.947,0l-97.28,97.28C299.053,198.68,299.053,203.8,302.467,207.213z"/>
			<path style="fill: #FFFFFF;" d="M278.573,182.467c1.707,1.707,3.413,2.56,5.973,2.56s4.267-0.853,5.973-2.56l96.427-96.427
				c3.413-3.413,3.413-8.533,0-11.947c-3.413-3.413-8.533-3.413-11.947,0l-96.427,96.427
				C275.16,173.933,275.16,179.053,278.573,182.467z"/>
			<path style="fill: #FFFFFF;" d="M266.627,146.627c1.707,1.707,3.413,2.56,5.973,2.56s4.267-0.853,5.973-2.56l84.48-84.48
				c3.413-3.413,3.413-8.533,0-11.947s-8.533-3.413-11.947,0l-84.48,84.48C263.213,138.093,263.213,143.213,266.627,146.627z"/>
			<path style="fill: #FFFFFF;" d="M327.213,231.107c1.707,1.707,3.413,2.56,5.973,2.56c1.707,0,4.267-0.853,5.973-2.56l96.427-96.427
				c3.413-3.413,3.413-8.533,0-11.947c-3.413-3.413-8.533-3.413-11.947,0l-96.427,96.427
				C323.8,222.573,323.8,227.693,327.213,231.107z"/>
			<path style="fill: #FFFFFF;" d="M363.053,243.053c1.707,1.707,3.413,2.56,5.973,2.56s4.267-0.853,5.973-2.56l84.48-84.48
				c3.413-3.413,3.413-8.533,0-11.947c-3.413-3.413-8.533-3.413-11.947,0l-84.48,84.48C359.64,234.52,359.64,239.64,363.053,243.053
				z"/>
		</g>
	</g>
</g>
<g>
</g>
<g>
</g>
<g>
</g>
<g>
</g>
<g>
</g>
<g>
</g>
<g>
</g>
<g>
</g>
<g>
</g>
<g>
</g>
<g>
</g>
<g>
</g>
<g>
</g>
<g>
</g>
<g>
</g>
</svg>
